<svg xmlns="http://www.w3.org/2000/svg" version="1.1" xmlns:xlink="http://www.w3.org/1999/xlink" width="700" height="700"><svg version="1.1" xmlns="http://www.w3.org/2000/svg" width="700" height="700" viewBox="480 220 350 350" xmlns:bx="https://boxy-svg.com" preserveAspectRatio="none"><defs><bx:export><bx:file format="svg"></bx:file></bx:export></defs><path d="M0 0 C0.86129013 -0.0065712 1.72258026 -0.0131424 2.60997009 -0.01991272 C5.44457103 -0.03952835 8.27911912 -0.05128602 11.11376953 -0.0612793 C12.09009464 -0.06535482 13.06641975 -0.06943035 14.07233047 -0.07362938 C19.24662306 -0.09444663 24.42088952 -0.1087635 29.59521484 -0.11816406 C34.89475271 -0.12918097 40.19386523 -0.16353877 45.49325371 -0.20333576 C49.60640144 -0.22970147 53.71945117 -0.23787374 57.83267593 -0.24144554 C59.78357927 -0.24626515 61.73447964 -0.25774379 63.68529892 -0.27648354 C88.6636916 -0.50139504 110.04094178 5.2838933 128.71533203 22.8059082 C145.97769767 39.81606395 156.17754508 60.1721857 156.43658829 84.61414528 C156.4512281 87.08565405 156.45536529 89.55701497 156.45751953 92.02856445 C156.46396034 93.77338771 156.47068962 95.51820992 156.47769165 97.26303101 C156.4896258 100.91260273 156.49337665 104.56208009 156.4921875 108.21166992 C156.49198494 112.84777645 156.51923878 117.48326566 156.55373192 122.11922646 C156.57616893 125.72275471 156.58001989 129.32613857 156.57896805 132.92972946 C156.58130069 134.63666273 156.58998936 136.34360145 156.60563278 138.05046463 C156.73688116 153.85444034 154.26061451 167.29277007 146.12158203 181.17700195 C145.75162109 181.92336914 145.38166016 182.66973633 145.00048828 183.4387207 C143.53302646 185.81071637 142.60223374 186.85166255 140.12158203 188.17700195 C136.53006512 188.6399568 133.06485641 188.83870018 129.45141602 188.90942383 C122.05608784 189.07034926 117.89698598 190.52775273 112.37158203 195.80200195 C110.25342105 198.49096605 109.55365151 201.09750334 108.62158203 204.36450195 C107.4431651 207.32324637 106.81136631 208.82791457 103.92633057 210.28797913 C92.00248893 213.03737052 79.90231099 212.63035218 67.73095703 212.6105957 C65.25677346 212.61516547 62.78259115 212.62047339 60.30841064 212.6264801 C55.1375206 212.63538241 49.96678524 212.63302181 44.79589844 212.62304688 C38.21185241 212.61157553 31.6283442 212.63175621 25.04436874 212.66096401 C19.93783243 212.6794278 14.83142251 212.67901309 9.72486115 212.67332649 C7.2994944 212.67317444 4.87411843 212.67912095 2.44878387 212.69161797 C-14.00610111 212.76445975 -30.48677464 212.51768062 -45.31591797 204.42700195 C-45.97076172 204.08338623 -46.62560547 203.73977051 -47.30029297 203.38574219 C-63.02673401 194.87306928 -74.86746369 181.38543553 -80.25341797 164.23950195 C-82.0623356 157.89256051 -83.03027921 152.10945545 -83.05541992 145.50366211 C-83.06199112 144.74674072 -83.06856232 143.98981934 -83.07533264 143.20996094 C-83.09499147 140.71199422 -83.10671704 138.21408769 -83.11669922 135.71606445 C-83.12077475 134.85676708 -83.12485027 133.99746971 -83.1290493 133.11213303 C-83.14988719 128.55612177 -83.16419388 124.00014034 -83.17358398 119.4440918 C-83.18459146 114.77651854 -83.21893172 110.1094295 -83.25875568 105.44202614 C-83.28512582 101.82135235 -83.29329414 98.20078987 -83.29686546 94.58002853 C-83.3016858 92.86191953 -83.31316672 91.14381392 -83.33190346 89.42580032 C-83.58811351 64.35785058 -75.32498471 43.41521047 -57.87841797 25.17700195 C-57.25322266 24.47704102 -56.62802734 23.77708008 -55.98388672 23.0559082 C-41.8520056 7.79347659 -20.42642971 0.06873815 0 0 Z " fill="#EBF7FE" transform="translate(610.87841796875,307.822998046875)"></path><path d="M0 0 C1.73308159 -0.0076664 1.73308159 -0.0076664 3.50117493 -0.01548767 C7.31097633 -0.02935861 11.1205963 -0.02842856 14.93041992 -0.02612305 C16.91503343 -0.02902818 18.89964701 -0.03193838 20.8842594 -0.03552979 C27.12175122 -0.04660398 33.35918281 -0.04707466 39.59667969 -0.04101562 C46.00928482 -0.03498174 52.42167022 -0.04727661 58.83423787 -0.06858569 C64.35891985 -0.08626228 69.88353227 -0.09219342 75.40824145 -0.08894795 C78.6994088 -0.08714402 81.99038572 -0.09101509 85.28153419 -0.10366249 C88.95739081 -0.11605376 92.63274466 -0.10921818 96.30859375 -0.09765625 C97.92130157 -0.10912186 97.92130157 -0.10912186 99.56658936 -0.12081909 C110.1509131 -0.04755389 119.17682619 2.34216182 127.34838867 9.2746582 C129.71066017 11.7684593 131.63995049 14.29571951 133.34838867 17.2746582 C133.69184326 17.82629639 134.03529785 18.37793457 134.38916016 18.94628906 C138.17468433 25.9383749 137.92231822 33.20036605 137.81494141 40.93066406 C137.78598903 43.20427734 137.79436073 45.47554866 137.80737305 47.74926758 C137.78927862 60.85231676 135.9125205 70.26557744 126.75463867 79.9621582 C120.24729659 86.10116017 111.32224251 89.37758888 102.4236908 89.42182922 C101.43280457 89.42898453 100.44191833 89.43613983 99.42100525 89.44351196 C97.79939232 89.44754532 97.79939232 89.44754532 96.14501953 89.45166016 C95.00142975 89.45823135 93.85783997 89.46480255 92.67959595 89.47157288 C88.89080743 89.49129996 85.10205859 89.50296856 81.31323242 89.51293945 C80.01775545 89.51701498 78.72227848 89.52109051 77.38754463 89.52528954 C71.2349923 89.54399958 65.08245978 89.55856401 58.92988485 89.5669015 C51.85053996 89.57665542 44.77150929 89.60292903 37.69227499 89.6434024 C31.54348354 89.67733736 25.39482292 89.6890578 19.24594307 89.6931057 C16.63976476 89.69796572 14.03358967 89.7095629 11.42747307 89.72814369 C7.77057056 89.75259116 4.1144794 89.75155901 0.45751953 89.74462891 C-1.14283897 89.76384399 -1.14283897 89.76384399 -2.77552795 89.78344727 C-13.39901124 89.71045528 -22.85396264 86.67814004 -30.65161133 79.2746582 C-39.61076767 69.62953398 -41.31646516 59.2755235 -41.1730957 46.54321289 C-41.15164418 44.27812678 -41.17298189 42.01621084 -41.19848633 39.7512207 C-41.22489071 27.2082805 -38.90159304 18.69561608 -30.08520508 9.47387695 C-21.14039626 1.39052644 -11.63428317 -0.02665804 0 0 Z " fill="#133B58" transform="translate(598.651611328125,364.725341796875)"></path><path d="M0 0 C11.96641126 3.58992338 18.930239 7.64383341 24.8828125 18.69140625 C29.02603375 27.25309772 29.11177416 36.01210861 26 45 C22.10517502 53.86549322 16.18156312 59.05916246 7.50390625 63.1875 C5 64 5 64 0 64 C0 42.88 0 21.76 0 0 Z " fill="#3ED9FB" transform="translate(767,386)"></path><path d="M0 0 C0 21.12 0 42.24 0 64 C-9.7715068 62.60407046 -15.34691086 58.49240442 -21.5625 50.953125 C-27.48869541 42.90122906 -27.75062952 34.71529067 -27 25 C-26.15726892 21.6189223 -24.85460902 18.93875732 -23 16 C-22.27103516 14.84371094 -22.27103516 14.84371094 -21.52734375 13.6640625 C-16.66244759 6.74049869 -8.89505136 0 0 0 Z " fill="#3BD8FB" transform="translate(528,386)"></path><path d="M0 0 C4.6478165 3.07284551 8.26045288 8.35396842 9.89453125 13.65234375 C11.23216401 20.84028244 9.64189646 27.19071711 6.25 33.5625 C2.65298141 37.81427543 -1.27027567 39.80725652 -6.75 40.625 C-12.49272829 40.84519664 -17.16846256 39.89162045 -21.5078125 35.9765625 C-27.18678801 29.69402438 -28.21945494 24.16721286 -28.05859375 15.79296875 C-27.54728466 10.440404 -26.04130176 6.6402941 -22.03125 3.00390625 C-15.66515729 -1.7571758 -7.46135221 -3.66405689 0 0 Z " fill="#3CD8FB" transform="translate(656.75,235.4375)"></path><path d="M0 0 C3.85051657 2.05862431 6.23709196 4.70637333 8.4375 8.4375 C9.75529628 14.44079419 9.21749944 18.88127278 6.25390625 24.19921875 C4.19027929 27.16286993 2.28387608 28.51296177 -1 30 C-5.74860623 30.81843124 -9.04712066 30.47643967 -13.375 28.3125 C-18.02293551 24.21789015 -19.63133586 20.4364486 -20.12890625 14.34375 C-19.84173854 9.122519 -17.17579971 5.42521177 -13.9375 1.5 C-9.33629557 -0.8495512 -5.04626901 -0.96016277 0 0 Z " fill="#44DAF7" transform="translate(694,394)"></path><path d="M0 0 C3.53416963 3.22233113 5.73851691 6.46830247 6.4765625 11.18359375 C6.70523363 17.34732011 5.20450072 21.53307729 1.125 26.25 C-2.39521418 29.22018072 -6.08474154 29.39164159 -10.51953125 29.35546875 C-14.63124973 28.62586033 -17.26873367 26.0852344 -19.875 22.9375 C-22.79146515 18.27505739 -22.49961939 13.25833184 -21.875 7.9375 C-17.48959024 -1.15816469 -9.24270257 -3.41578139 0 0 Z " fill="#43DBF8" transform="translate(615.875,395.0625)"></path><path d="M0 0 C3.52366106 0.27105085 6.55740428 0.83643202 9.875 2.0625 C16.48624933 4.0458748 21.87546296 3.31604753 28.14453125 0.67578125 C30.84732481 -0.30860461 33.16637163 -0.33733671 36 0 C38 2 38 2 38.0625 5.375 C36.95181983 9.16437939 36.84005084 9.53488449 33.6875 11.375 C25.71023848 15.35497863 14.4977105 15.48720117 5.953125 13.17578125 C2.75843467 11.77157913 0.47361481 10.47361481 -2 8 C-2.25 5 -2.25 5 -2 2 C-1.34 1.34 -0.68 0.68 0 0 Z " fill="#113451" transform="translate(631,476)"></path><path d="M0 0 C2.64 0 5.28 0 8 0 C8 10.56 8 21.12 8 32 C5.36 32 2.72 32 0 32 C0 21.44 0 10.88 0 0 Z " fill="#113550" transform="translate(643,276)"></path></svg><style>@media (prefers-color-scheme: light) { :root { filter: none; } }
@media (prefers-color-scheme: dark) { :root { filter: none; } }
</style></svg>