<svg xmlns="http://www.w3.org/2000/svg" version="1.1" xmlns:xlink="http://www.w3.org/1999/xlink" width="1024" height="1024"><svg version="1.1" xmlns="http://www.w3.org/2000/svg" width="1024" height="1024" xmlns:bx="https://boxy-svg.com" viewBox="0 256 1024 1024">
  <defs>
    <bx:export>
      <bx:file format="svg"></bx:file>
    </bx:export>
  </defs>
  <path d="M0 0 C1.28477486 -0.00845947 1.28477486 -0.00845947 2.59550476 -0.01708984 C3.99281326 -0.01101715 3.99281326 -0.01101715 5.41835022 -0.00482178 C6.40576706 -0.00832642 7.3931839 -0.01183105 8.41052246 -0.01544189 C11.67630533 -0.02424813 14.94187176 -0.01841343 18.20765686 -0.01165771 C20.47682741 -0.01300479 22.74599768 -0.01494568 25.01516724 -0.01745605 C29.77231085 -0.02040591 34.52937939 -0.01611447 39.28651428 -0.0067749 C45.38422347 0.00461299 51.48175648 -0.0019366 57.57945919 -0.01391983 C62.26602505 -0.02114766 66.95254917 -0.01884612 71.63911629 -0.01366425 C73.88739098 -0.01232997 76.13566947 -0.01396769 78.38393974 -0.01862335 C81.52702239 -0.02370293 84.66982004 -0.01595768 87.81288147 -0.00482178 C89.20715363 -0.01089447 89.20715363 -0.01089447 90.6295929 -0.01708984 C95.90839625 0.01755386 100.35350431 0.07103717 104.40174866 3.86895752 C106.21002478 7.24208134 106.63632778 10.67178725 107.13734436 14.41412354 C107.2576149 15.2400148 107.37788544 16.06590607 107.50180054 16.91682434 C107.764286 18.72796467 108.0214877 20.53987658 108.27412415 22.35241699 C108.69359599 25.34885158 109.13089066 28.34224774 109.57240295 31.33551025 C110.36015742 36.68943145 111.1321563 42.04546081 111.89735413 47.40264893 C112.37469848 50.73960056 112.85655668 54.07588259 113.33851624 57.41217041 C113.64412754 59.5455949 113.94947619 61.67905703 114.25453186 63.81256104 C114.39823715 64.80412704 114.54194244 65.79569305 114.69000244 66.81730652 C114.82046463 67.7366951 114.95092682 68.65608368 115.08534241 69.60333252 C115.20064804 70.40762192 115.31595367 71.21191132 115.43475342 72.04057312 C115.68031311 74.25396729 115.68031311 74.25396729 115.68031311 78.25396729 C116.41677063 78.3635376 117.15322815 78.47310791 117.91200256 78.58599854 C143.77346768 82.63463137 168.88387356 92.51366518 191.77845764 105.02642822 C192.62907776 105.47792236 193.47969788 105.9294165 194.35609436 106.39459229 C195.46851501 107.00609131 195.46851501 107.00609131 196.60340881 107.62994385 C198.69089089 108.47930527 198.69089089 108.47930527 200.75892639 107.5244751 C203.79571386 105.51641385 206.50649469 103.14437868 209.24281311 100.75396729 C209.86196594 100.21860352 210.48111877 99.68323975 211.11903381 99.13165283 C215.83117236 95.04044207 220.4347081 90.84084227 225.03187561 86.62115479 C228.57897331 83.45074003 232.26891409 80.47588095 235.97328186 77.49224854 C239.56587115 74.52175263 242.98363135 71.37896464 246.39125061 68.19927979 C250.03360267 65.1039021 253.20126581 62.6886541 258.11781311 62.81646729 C268.3775108 64.16602393 277.06364121 75.42736204 283.90687561 82.47271729 C286.29831313 84.87468977 288.84627003 87.06405227 291.41468811 89.27349854 C294.21347527 91.72002455 296.94722809 94.23471672 299.68031311 96.75396729 C302.95870948 99.77339619 306.24612755 102.77599288 309.61781311 105.69146729 C317.97372566 112.95973006 326.0514106 120.53524166 333.93031311 128.31646729 C334.77178894 129.13848633 334.77178894 129.13848633 335.63026428 129.97711182 C339.39486652 133.73290865 340.88348438 136.6306158 341.49281311 141.87896729 C341.40170437 149.62321026 336.70542658 154.55964944 332.23500061 160.46881104 C327.76008501 166.38465441 323.86513962 172.64147224 319.92982483 178.92315674 C319.35248596 179.84443359 318.77514709 180.76571045 318.18031311 181.71490479 C317.60539124 182.63239502 317.03046936 183.54988525 316.43812561 184.49517822 C314.68393992 187.2482752 312.87925346 189.9607417 311.05531311 192.66802979 C310.48683655 193.52541748 309.91835999 194.38280518 309.33265686 195.26617432 C308.25763295 196.88474607 307.16718406 198.49321315 306.05921936 200.0894165 C303.19375009 204.32823437 303.19375009 204.32823437 303.08656311 209.28131104 C303.61250061 210.2622876 304.13843811 211.24326416 304.68031311 212.25396729 C305.15597717 213.15042969 305.15597717 213.15042969 305.64125061 214.06500244 C306.78354993 216.1718985 307.9787152 218.24286049 309.18031311 220.31646729 C319.35180361 238.28261797 327.91671836 256.79612083 333.34828186 276.74224854 C333.57463318 277.56551636 333.8009845 278.38878418 334.03419495 279.23699951 C334.58512758 281.24204496 335.13303916 283.24792012 335.68031311 285.25396729 C336.7081617 285.34126602 336.7081617 285.34126602 337.7567749 285.43032837 C344.27236122 285.98451504 350.78756384 286.54300089 357.30238628 287.10610008 C360.65026037 287.39532182 363.99827934 287.68250875 367.34657288 287.96685791 C371.21209324 288.29540913 375.07708821 288.62964528 378.94203186 288.96490479 C380.12174057 289.06395111 381.30144928 289.16299744 382.51690674 289.26504517 C385.90869118 289.56237697 389.29348065 289.90518278 392.68031311 290.25396729 C393.85848602 290.34623596 395.03665894 290.43850464 396.25053406 290.53356934 C397.3975882 290.65351257 398.54464233 290.77345581 399.72645569 290.89703369 C400.75104385 290.98981598 401.77563202 291.08259827 402.83126831 291.17819214 C406.13620006 292.42610633 407.83588339 294.00668536 409.73345089 296.9865036 C411.68710172 301.66493751 411.37125529 306.58476073 411.32728577 311.57989502 C411.33604736 312.80677032 411.34480896 314.03364563 411.35383606 315.29769897 C411.37201918 318.64743544 411.36783352 321.99561903 411.35194063 325.34526706 C411.33922923 328.86092039 411.35103648 332.37651004 411.35887146 335.89216614 C411.3679541 341.79584581 411.35601815 347.6992122 411.33216858 353.60284424 C411.30497212 360.41328518 411.31376552 367.22297727 411.34130061 374.0334 C411.36404566 379.89525365 411.36716522 385.75688281 411.35410726 391.61876637 C411.34634053 395.11336943 411.34519342 398.60762142 411.3617897 402.10220146 C411.3790153 406.00130822 411.35509075 409.89958746 411.32728577 413.79864502 C411.33740692 414.94642929 411.34752808 416.09421356 411.35795593 417.27677917 C411.26840786 424.06938412 410.49045443 429.18661028 405.68031311 434.25396729 C402.13269798 436.37700546 398.5669282 436.64507629 394.48475647 437.03179932 C393.25675827 437.15177277 392.02876007 437.27174622 390.7635498 437.39535522 C389.43243864 437.51771253 388.10130714 437.63984874 386.77015686 437.76177979 C385.39677263 437.89284049 384.02344666 438.02451298 382.650177 438.1567688 C379.77838799 438.43183061 376.90620091 438.70204163 374.03358459 438.96832275 C370.35547818 439.30929743 366.67820743 439.65842293 363.00116634 440.01068306 C359.48691633 440.34706285 355.97231233 440.67966728 352.45765686 441.01177979 C351.789373 441.07518681 351.12108913 441.13859383 350.43255424 441.20392227 C348.53738816 441.38298383 346.64193698 441.55902018 344.74647522 441.73492432 C343.66901535 441.83548126 342.59155548 441.93603821 341.48144531 442.03964233 C339.21988616 442.21268256 336.94848257 442.25396729 334.68031311 442.25396729 C334.38640686 443.83758057 334.38640686 443.83758057 334.08656311 445.45318604 C329.27460524 469.85668666 318.93495044 493.94711408 304.90760803 514.48321533 C304.45619446 515.17068848 304.00478088 515.85816162 303.53968811 516.56646729 C303.13202209 517.1607251 302.72435608 517.75498291 302.30433655 518.36724854 C301.46756596 520.31725689 301.46756596 520.31725689 302.30921936 522.59210205 C303.92853218 525.7358641 305.77541459 528.60200185 307.75843811 531.53131104 C308.1619751 532.13100708 308.56551208 532.73070312 308.98127747 533.34857178 C309.84586559 534.63299646 310.71239935 535.91611325 311.58070374 537.19802856 C313.85921689 540.56350337 316.12140522 543.93990205 318.38343811 547.31646729 C318.83561707 547.99100449 319.28779602 548.66554169 319.75367737 549.36051941 C323.80849414 555.4209824 327.77083949 561.53602352 331.68031311 567.69146729 C332.51417542 569.0013562 332.51417542 569.0013562 333.36488342 570.33770752 C342.6620894 585.03605078 342.6620894 585.03605078 341.68031311 591.25396729 C339.70789031 595.84416781 336.88717432 599.24840242 333.07093811 602.42974854 C328.28423856 606.53684147 323.86538893 610.96087405 319.43031311 615.44146729 C318.57276428 616.30280273 317.71521545 617.16413818 316.8316803 618.05157471 C314.11210422 620.78327849 311.39580111 623.51820004 308.68031311 626.25396729 C305.09993285 629.8610858 301.5161613 633.4647853 297.93031311 637.06646729 C297.12174866 637.88333008 296.3131842 638.70019287 295.4801178 639.54180908 C290.71406469 644.3281918 285.81323175 648.86526057 280.68031311 653.25396729 C279.45610903 654.33163862 278.23324215 655.41083292 277.01234436 656.49224854 C275.83949231 657.51736011 274.66631818 658.54210332 273.49281311 659.56646729 C272.90306702 660.09047119 272.31332092 660.6144751 271.70570374 661.15435791 C267.48400001 664.82193367 264.05720164 666.88829213 258.43031311 667.75396729 C250.54061094 666.702007 244.92495129 660.70663538 239.24281311 655.50787354 C236.25178167 652.87704253 233.14219746 650.4407488 229.99281311 648.00396729 C225.0229287 644.15056974 220.1870465 640.18002939 215.43031311 636.06646729 C214.84870422 635.56703613 214.26709534 635.06760498 213.66786194 634.55303955 C211.02360558 632.28219583 208.39457134 629.99988879 205.78968811 627.68365479 C204.92859436 626.94373291 204.06750061 626.20381104 203.18031311 625.44146729 C202.44812561 624.79564697 201.71593811 624.14982666 200.96156311 623.48443604 C198.70314956 622.02965474 198.70314956 622.02965474 195.89125061 622.27740479 C191.78586627 623.526001 188.46853119 625.49213401 184.80531311 627.69146729 C167.04340882 637.92392925 147.10081673 645.95422558 127.02015686 650.29302979 C126.27830139 650.45754639 125.53644592 650.62206299 124.77210999 650.79156494 C122.75653145 651.22419252 120.73223645 651.61563633 118.70765686 652.00396729 C115.44254239 652.93667229 115.44254239 652.93667229 114.54623413 655.94450378 C113.71030871 659.13932709 113.17909398 662.17711962 112.79823303 665.4553833 C112.65435654 666.66005753 112.51048004 667.86473175 112.36224365 669.10591125 C112.13877007 671.03738258 112.13877007 671.03738258 111.91078186 673.00787354 C111.74741107 674.35509555 111.58286626 675.70217566 111.41720581 677.04911804 C110.71710413 682.74564991 110.02495699 688.44293914 109.36561584 694.14434814 C108.96036402 697.64203157 108.53410503 701.13661318 108.09427834 704.63010979 C107.85249623 706.59856255 107.6336505 708.569789 107.41522217 710.54096985 C106.28240731 719.41774291 106.28240731 719.41774291 103.35731506 723.48028564 C97.61181569 727.28703922 92.92849336 727.54734382 86.21180725 727.52862549 C85.26486496 727.53373642 84.31792267 727.53884735 83.34228516 727.54411316 C80.21661534 727.55799659 77.09116632 727.55705336 73.96546936 727.55474854 C71.78980426 727.55863603 69.61413992 727.56297081 67.43847656 727.56773376 C62.87982217 727.57519321 58.32124524 727.57490658 53.7625885 727.56964111 C47.92389599 727.56384563 42.08552061 727.58078091 36.24688053 727.60398579 C31.75414174 727.61872466 27.26147931 727.61959462 22.76872063 727.61647606 C20.61616322 727.61698915 18.46360153 727.6222246 16.31106758 727.63228798 C13.29990712 727.64463837 10.28936424 727.63786893 7.2782135 727.62628174 C6.39126801 727.63392548 5.50432251 727.64156921 4.59049988 727.64944458 C-0.46300066 727.60651043 -3.93696715 727.05193823 -8.31968689 724.25396729 C-12.17923244 719.84732809 -12.34172104 714.10465312 -13.07359314 708.50396729 C-13.21997726 707.45426758 -13.36636139 706.40456787 -13.5171814 705.32305908 C-13.98276227 701.96805256 -14.43283948 698.61118273 -14.88218689 695.25396729 C-15.18777301 693.02595782 -15.49440301 690.79809126 -15.80210876 688.57037354 C-16.24790583 685.34152264 -16.69234445 682.11254217 -17.13038635 678.88262939 C-17.99626953 672.50595163 -18.92666182 666.14969399 -20.0030365 659.80474854 C-20.35940829 656.933991 -20.37284049 654.14383071 -20.31968689 651.25396729 C-21.20454773 651.19571777 -21.20454773 651.19571777 -22.10728455 651.1362915 C-28.87794323 650.58781925 -35.16702436 649.22748095 -41.69468689 647.37896729 C-42.76468933 647.076521 -43.83469177 646.77407471 -44.93711853 646.46246338 C-62.51326585 641.31370254 -80.0010677 634.71143332 -95.99327087 625.71929932 C-99.5177311 623.66554069 -99.5177311 623.66554069 -103.42906189 623.75396729 C-104.05296814 624.24896729 -104.67687439 624.74396729 -105.31968689 625.25396729 C-106.20140564 625.8894751 -107.08312439 626.52498291 -107.99156189 627.17974854 C-109.00734314 627.96736572 -110.02312439 628.75498291 -111.06968689 629.56646729 C-111.63042908 630.00088135 -112.19117126 630.43529541 -112.76890564 630.88287354 C-118.03280641 634.98341768 -123.19935298 639.20218616 -128.36436462 643.42608643 C-133.58789804 647.68823332 -138.90408954 651.8086155 -144.26890564 655.89068604 C-148.29149712 659.00677803 -152.18923779 662.25660002 -156.07749939 665.53912354 C-160.02188612 668.55582349 -163.47460337 668.66456758 -168.31968689 668.25396729 C-172.71897947 665.65275069 -176.39373336 662.53467116 -180.13218689 659.06646729 C-180.91094177 658.34572021 -180.91094177 658.34572021 -181.70542908 657.6104126 C-185.56937626 654.01278055 -189.31830604 650.31230361 -192.99156189 646.51959229 C-195.64466234 643.937716 -198.41963407 641.52890934 -201.21372986 639.10162354 C-211.678363 629.92050324 -221.60455061 620.0935345 -231.50718689 610.31646729 C-232.83399475 609.02168457 -232.83399475 609.02168457 -234.18760681 607.70074463 C-246.35432595 595.59809151 -246.35432595 595.59809151 -248.06968689 587.87896729 C-245.70902054 576.46907995 -236.62380555 566.05292793 -230.13218689 556.56646729 C-229.14410361 555.1143015 -228.15647118 553.66182885 -227.16929626 552.20904541 C-226.68081207 551.49159149 -226.19232788 550.77413757 -225.68904114 550.03494263 C-224.70948061 548.59518506 -223.73170275 547.15421293 -222.75575256 545.71200562 C-220.25446325 542.0294837 -217.7060153 538.39775545 -215.05943298 534.81793213 C-214.53878769 534.10042282 -214.0181424 533.38291351 -213.48171997 532.6436615 C-212.48951387 531.27975653 -211.48102088 529.92750319 -210.4541626 528.5894928 C-208.27815249 525.56927777 -207.20221572 523.98285327 -207.80723572 520.2288208 C-208.3063446 519.24711914 -208.80545349 518.26541748 -209.31968689 517.25396729 C-209.85722595 516.16567627 -210.39476501 515.07738525 -210.94859314 513.95611572 C-211.58923307 512.75643845 -212.23398189 511.55894898 -212.88218689 510.36334229 C-213.60021703 509.01340154 -214.31730113 507.66295728 -215.03355408 506.31207275 C-215.59399414 505.25799225 -215.59399414 505.25799225 -216.16575623 504.18261719 C-224.08034506 489.23967587 -230.78443742 474.25868032 -236.31968689 458.25396729 C-236.61327087 457.40963135 -236.90685486 456.56529541 -237.20933533 455.69537354 C-238.63523292 451.5651874 -240.01239574 447.423538 -241.31968689 443.25396729 C-256.88661301 441.35982046 -272.39647562 439.83870505 -288.05259705 438.98883057 C-309.44346585 437.74873791 -309.44346585 437.74873791 -315.31968689 431.25396729 C-316.40092532 428.15386685 -316.45189399 425.21894429 -316.46685791 421.95394897 C-316.47401321 420.88010956 -316.48116852 419.80627014 -316.48854065 418.69989014 C-316.49122955 417.52680298 -316.49391846 416.35371582 -316.49668884 415.14508057 C-316.50326004 413.90567719 -316.50983124 412.6662738 -316.51660156 411.38931274 C-316.53632714 407.28429929 -316.54799706 403.17932485 -316.55796814 399.07427979 C-316.56201719 397.65911719 -316.56613415 396.24395478 -316.57031822 394.82879257 C-316.58935627 388.18129464 -316.60359189 381.53380774 -316.61193019 374.88628781 C-316.62170689 367.21940913 -316.64804321 359.55281882 -316.68843108 351.88604176 C-316.71860243 345.95470376 -316.73339989 340.02344842 -316.7367112 334.09203517 C-316.73905994 330.55161466 -316.74799734 327.01150273 -316.77317238 323.4711647 C-316.80080825 319.52123038 -316.79661881 315.5716753 -316.78965759 311.62164307 C-316.80246765 310.45260437 -316.81527771 309.28356567 -316.82847595 308.07910156 C-316.78835336 301.84168194 -316.56870098 297.96910375 -312.31968689 293.25396729 C-308.90502076 290.70117828 -304.87473387 290.77530098 -300.74937439 290.50787354 C-300.0034201 290.45218201 -299.25746582 290.39649048 -298.48890686 290.33911133 C-296.88831692 290.21996667 -295.2874615 290.10434589 -293.68638611 289.99191284 C-289.49761338 289.69697292 -285.31095529 289.37524287 -281.12437439 289.05084229 C-280.28904175 288.98637405 -279.45370911 288.92190582 -278.59306335 288.85548401 C-270.07690397 288.18285709 -261.60483956 287.22579756 -253.12779236 286.16827393 C-252.15986755 286.04831055 -251.19194275 285.92834717 -250.19468689 285.80474854 C-249.36710876 285.69815918 -248.53953064 285.59156982 -247.68687439 285.48175049 C-245.21678807 285.24406582 -242.79962693 285.21508033 -240.31968689 285.25396729 C-240.20753845 284.53338135 -240.09539001 283.81279541 -239.97984314 283.07037354 C-235.4704463 258.51921297 -224.24983524 233.50573798 -211.27281189 212.22271729 C-209.48977717 209.13926944 -209.48977717 209.13926944 -209.74937439 205.64068604 C-210.26757751 204.85306885 -210.78578064 204.06545166 -211.31968689 203.25396729 C-211.92039001 202.1672876 -212.52109314 201.08060791 -213.13999939 199.96099854 C-213.90380031 198.6602111 -214.67238864 197.36222776 -215.44468689 196.06646729 C-215.86919128 195.3495874 -216.29369568 194.63270752 -216.73106384 193.894104 C-225.18218739 179.69716153 -233.85225207 165.61268093 -242.77012634 151.70465088 C-243.28148132 150.89592529 -243.7928363 150.08719971 -244.31968689 149.25396729 C-244.8832489 148.39754639 -245.44681091 147.54112549 -246.02745056 146.65875244 C-247.89490407 143.18351778 -247.2598062 141.01444454 -246.31968689 137.25396729 C-244.88218689 134.31646729 -244.88218689 134.31646729 -243.31968689 132.25396729 C-242.65968689 132.25396729 -241.99968689 132.25396729 -241.31968689 132.25396729 C-241.07476501 131.6829126 -240.82984314 131.11185791 -240.57749939 130.52349854 C-237.36462368 124.72635323 -231.50112097 120.21300838 -226.50718689 115.94146729 C-222.36733201 112.39656161 -218.57998387 108.54244752 -214.75328064 104.66802979 C-211.33423255 101.22294834 -207.80934494 97.97608847 -204.11265564 94.82818604 C-201.65386555 92.66937905 -199.39260907 90.33730624 -197.10093689 88.00396729 C-194.60072504 85.5476188 -191.94288173 83.29087361 -189.28843689 81.00396729 C-187.38945618 79.31598443 -185.599627 77.56626995 -183.81968689 75.75396729 C-180.16769986 72.04348161 -176.31955652 68.58581745 -172.31968689 65.25396729 C-171.66742126 64.7035376 -171.01515564 64.15310791 -170.34312439 63.58599854 C-166.78035644 61.24062427 -163.41774236 61.47686438 -159.31968689 62.25396729 C-151.36389077 65.71364376 -145.00941693 72.99415491 -138.7855072 78.88092041 C-136.338298 81.17324296 -133.80343075 83.36028549 -131.26890564 85.55474854 C-126.31644826 89.872021 -121.46476555 94.30613724 -116.60093689 98.72271729 C-115.72437439 99.51677979 -114.84781189 100.31084229 -113.94468689 101.12896729 C-113.15320251 101.84826416 -112.36171814 102.56756104 -111.54624939 103.30865479 C-110.44410095 104.27158447 -110.44410095 104.27158447 -109.31968689 105.25396729 C-108.64679626 105.85467041 -107.97390564 106.45537354 -107.28062439 107.07427979 C-105.45215124 108.45371484 -105.45215124 108.45371484 -103.61778259 108.019104 C-100.49518621 106.9794549 -97.55881347 105.59739124 -94.58921814 104.19146729 C-93.22763054 103.55652435 -91.86571907 102.92227556 -90.50352478 102.28863525 C-89.79052216 101.95619812 -89.07751953 101.62376099 -88.34291077 101.28125 C-37.97761008 77.87742134 -37.97761008 77.87742134 -20.31968689 78.25396729 C-20.27883972 77.00220703 -20.27883972 77.00220703 -20.23716736 75.72515869 C-19.64791664 63.1375158 -17.85056904 50.76034773 -15.99107361 38.30523682 C-15.44092699 34.60366946 -14.90915155 30.89974872 -14.37828064 27.19537354 C-14.02912405 24.82672098 -13.6789022 22.45822515 -13.32749939 20.08990479 C-13.0929454 18.43986954 -13.0929454 18.43986954 -12.85365295 16.75650024 C-11.31476288 6.65160666 -11.31476288 6.65160666 -8.31968689 2.25396729 C-5.47338715 0.49292361 -3.32245736 0.00337641 0 0 Z " fill="#000000" transform="translate(465.31968688964844,373.74603271484375)"></path>
  <path d="M0 0 C0.92167969 0.79148437 1.84335937 1.58296875 2.79296875 2.3984375 C5.24140302 4.5549281 7.63065641 6.75697036 10 9 C10.95261719 9.89976562 11.90523437 10.79953125 12.88671875 11.7265625 C50.29029523 47.71333684 72.41628938 100.36040671 73.42407227 152.09326172 C73.61957846 206.2449227 53.78052985 260.09088301 15.8828125 299.12890625 C12.41000009 302.62304492 8.79625318 305.86213759 5 309 C3.64261719 310.2065625 3.64261719 310.2065625 2.2578125 311.4375 C-24.89099876 335.43755296 -58.98353333 351.55448512 -94.125 359.75 C-95.39331665 360.04825684 -95.39331665 360.04825684 -96.68725586 360.35253906 C-110.26304084 363.35935173 -123.7588123 364.38452036 -137.625 364.3125 C-138.36123596 364.31067719 -139.09747192 364.30885437 -139.85601807 364.30697632 C-152.4210913 364.25492562 -164.65370242 363.48786956 -177 361 C-177.82532227 360.83371094 -178.65064453 360.66742187 -179.50097656 360.49609375 C-198.16219694 356.57047669 -216.33122759 350.10709676 -233.10546875 341.02539062 C-235.03017451 339.98366844 -236.96763514 338.96868169 -238.90625 337.953125 C-253.56745049 330.12911897 -266.92199807 320.3969116 -279 309 C-280.28830474 307.9126708 -281.57991155 306.82924038 -282.875 305.75 C-320.39179858 272.92280125 -341.09359189 223.83186554 -346 175 C-347.19617068 147.11653648 -345.03863816 120.82579502 -337 94 C-336.77473633 93.24557617 -336.54947266 92.49115234 -336.31738281 91.71386719 C-326.53573278 59.85405342 -307.83708406 32.8423849 -285 9 C-284.29101562 8.24976563 -283.58203125 7.49953125 -282.8515625 6.7265625 C-277.62605712 1.33042837 -271.91731809 -3.38269876 -266 -8 C-265.17435547 -8.6482373 -265.17435547 -8.6482373 -264.33203125 -9.30957031 C-254.46283483 -16.99978123 -244.11021589 -23.26687499 -233 -29 C-232.31744141 -29.35690918 -231.63488281 -29.71381836 -230.93164062 -30.08154297 C-212.81816999 -39.45073125 -193.10082474 -45.69044294 -173 -49 C-172.0114502 -49.17354004 -172.0114502 -49.17354004 -171.00292969 -49.35058594 C-110.2684611 -59.60999241 -46.18949048 -39.91221693 0 0 Z " transform="translate(650,584)" style="fill-rule: nonzero; paint-order: fill; fill: rgb(255, 255, 255);"></path>
  <path d="M0 0 C1.42913416 1.29292319 2.86487233 2.57903436 4.32641602 3.83520508 C9.84398612 8.57977895 15.01247671 13.61680808 20.14453125 18.7734375 C20.95599609 19.58103516 21.76746094 20.38863281 22.60351562 21.22070312 C26.91555418 25.5397022 31.07230326 29.93279075 35.05151367 34.56030273 C37.13197078 36.97395157 39.29490834 39.30795765 41.45703125 41.6484375 C63.58674735 65.97779405 81.53003299 93.72539455 97.58203125 122.3359375 C98.00532715 123.08327148 98.42862305 123.83060547 98.86474609 124.60058594 C115.81618088 154.70020351 128.13719542 187.89844712 136.58203125 221.3359375 C136.84322754 222.34978516 137.10442383 223.36363281 137.37353516 224.40820312 C143.78744637 249.55675678 147.75480209 275.44836754 149.58203125 301.3359375 C149.63842773 302.08810547 149.69482422 302.84027344 149.75292969 303.61523438 C150.15836966 309.18583561 150.41547644 314.75326686 150.58203125 320.3359375 C150.62505371 321.76824707 150.62505371 321.76824707 150.66894531 323.22949219 C153.06020543 418.30478355 122.68071528 513.87985719 39.58203125 628.3359375 C38.98003906 629.03976562 38.37804687 629.74359375 37.7578125 630.46875 C26.21059479 643.83332643 14.07972724 656.91844684 0.58203125 668.3359375 C-0.44360454 669.22422669 -1.46825647 670.11365252 -2.4921875 671.00390625 C-16.24567381 682.93369326 -30.39280756 694.04642942 -45.41796875 704.3359375 C-46.06797852 704.78211426 -46.71798828 705.22829102 -47.38769531 705.68798828 C-66.43747062 718.71360034 -86.49890022 730.20532171 -107.25732422 740.28222656 C-109.56879449 741.40949274 -111.8699315 742.55654187 -114.171875 743.703125 C-127.92266632 750.47872297 -142.02065421 756.08878842 -156.41796875 761.3359375 C-157.21734863 761.62952148 -158.01672852 761.92310547 -158.84033203 762.22558594 C-181.51758464 770.46167903 -205.61776946 776.49401228 -229.41796875 780.3359375 C-230.59133789 780.53203613 -231.76470703 780.72813477 -232.97363281 780.93017578 C-255.94059466 784.57331383 -278.97263059 784.70816446 -302.16796875 784.7109375 C-303.30224619 784.71240469 -303.30224619 784.71240469 -304.45943832 784.71390152 C-329.95371752 784.74543638 -355.0932539 783.75252908 -380.29296875 779.5859375 C-381.09636688 779.45555084 -381.89976501 779.32516418 -382.72750854 779.19082642 C-426.67453025 772.03856777 -468.276655 758.62994409 -508.41796875 739.3359375 C-509.26584961 738.93584473 -510.11373047 738.53575195 -510.98730469 738.12353516 C-542.93033513 723.03061017 -573.79820771 703.04869358 -600.4921875 679.859375 C-603.35630609 677.38912051 -606.27962099 675.01395978 -609.23046875 672.6484375 C-613.2494747 669.38081093 -616.92633933 665.94115605 -620.53125 662.2265625 C-622.38281873 660.37116029 -624.30050548 658.66308177 -626.29296875 656.9609375 C-633.23819967 650.97084639 -639.63503404 644.41187275 -645.58984375 637.44140625 C-647.72817745 634.97866722 -649.94881474 632.60106407 -652.16796875 630.2109375 C-657.39820922 624.4687006 -662.16656483 618.43623658 -666.90234375 612.28417969 C-668.48057598 610.25545977 -670.08668409 608.25153981 -671.69921875 606.25 C-690.66977056 582.55299672 -705.76152594 556.36670473 -719.41796875 529.3359375 C-719.82402344 528.53462402 -720.23007812 527.73331055 -720.6484375 526.90771484 C-736.29698434 495.75081718 -747.05466172 462.35546704 -754.41796875 428.3359375 C-754.60697754 427.47194336 -754.79598633 426.60794922 -754.99072266 425.71777344 C-760.13934017 401.76530715 -763.51761307 376.75805035 -763.62109375 352.2578125 C-763.62806274 351.1402356 -763.63503174 350.02265869 -763.64221191 348.87121582 C-763.65952914 345.27608434 -763.665934 341.68110898 -763.66796875 338.0859375 C-763.66897583 336.85629272 -763.66998291 335.62664795 -763.67102051 334.35974121 C-763.66038204 315.14853866 -762.97408612 296.38815061 -760.41796875 277.3359375 C-760.27343262 276.18996094 -760.12889648 275.04398438 -759.97998047 273.86328125 C-751.91980202 210.52438169 -729.24656453 151.84284783 -696.41796875 97.3359375 C-695.96180176 96.56781738 -695.50563477 95.79969727 -695.03564453 95.00830078 C-689.01756235 84.88098601 -682.22737507 75.55372918 -674.94921875 66.29638672 C-673.55526563 64.51171779 -672.18401268 62.71310059 -670.82421875 60.90234375 C-664.39446644 52.37457161 -657.51646433 44.31079056 -650.41796875 36.3359375 C-649.96292969 35.82160156 -649.50789063 35.30726563 -649.0390625 34.77734375 C-642.40768525 27.31456995 -635.40779614 20.20387143 -628.37689209 13.11962891 C-627.38027219 12.11497272 -626.38513753 11.10884048 -625.3916626 10.10107422 C-618.74875521 3.37273748 -611.80670097 -2.76379906 -604.41796875 -8.6640625 C-603.31626419 -9.5989877 -602.21991782 -10.54032612 -601.1328125 -11.4921875 C-587.83201605 -23.09063166 -573.25303724 -33.13422713 -558.41796875 -42.6640625 C-557.65709961 -43.15342285 -556.89623047 -43.6427832 -556.11230469 -44.14697266 C-503.53779655 -77.76241384 -445.95245977 -99.53803915 -384.66796875 -110.9765625 C-383.88486328 -111.12391846 -383.10175781 -111.27127441 -382.29492188 -111.4230957 C-367.54956177 -114.02548711 -352.60409991 -115.05513371 -337.66796875 -115.7890625 C-336.83770172 -115.83075562 -336.00743469 -115.87244873 -335.15200806 -115.91540527 C-235.95246764 -120.845136 -138.24901603 -95.30054191 0 0 Z M-411.41796875 -77.6640625 C-412.26939453 -77.46731934 -413.12082031 -77.27057617 -413.99804688 -77.06787109 C-464.52119705 -65.23770061 -512.91080264 -42.09909327 -555.41796875 -12.6640625 C-556.08119141 -12.2093457 -556.74441406 -11.75462891 -557.42773438 -11.28613281 C-566.42466114 -5.10608967 -574.92409198 1.62586825 -583.31005859 8.60864258 C-584.7509483 9.78935774 -586.21078056 10.9472304 -587.68603516 12.0847168 C-596.74457524 19.18642361 -604.76108991 27.34217923 -612.87890625 35.48120117 C-615.40368361 38.00913451 -617.94149883 40.52344073 -620.48046875 43.03710938 C-629.50674605 52.02864661 -637.83582532 61.09191567 -645.41796875 71.3359375 C-647.053151 73.44860377 -648.70498041 75.54765907 -650.35546875 77.6484375 C-693.31557123 133.34362852 -721.66080488 196.91650577 -733.41796875 266.3359375 C-733.62848877 267.57875488 -733.62848877 267.57875488 -733.84326172 268.84667969 C-749.77967765 365.44125728 -729.72190846 465.86632551 -666.41796875 570.3359375 C-666.02722168 570.90393066 -665.63647461 571.47192383 -665.23388672 572.05712891 C-658.46092538 581.89688271 -651.05351081 591.15538754 -643.41796875 600.3359375 C-642.69625488 601.20847168 -642.69625488 601.20847168 -641.95996094 602.09863281 C-631.99107844 614.13534238 -621.38123618 625.46427505 -610.37487793 636.55426025 C-609.37911439 637.55806382 -608.38483581 638.56334312 -607.39221191 639.57025146 C-600.74911764 646.29877387 -593.80690751 652.43550913 -586.41796875 658.3359375 C-585.31626419 659.2708627 -584.21991782 660.21220112 -583.1328125 661.1640625 C-574.329661 668.84050966 -564.98850185 675.65052807 -555.41796875 682.3359375 C-554.78133301 682.78324219 -554.14469727 683.23054688 -553.48876953 683.69140625 C-535.50247333 696.25909508 -515.96980992 706.45174222 -496.41796875 716.3359375 C-495.68723145 716.7067041 -494.95649414 717.0774707 -494.20361328 717.45947266 C-455.49963824 736.90912702 -413.12532265 748.86329321 -370.41796875 755.3359375 C-369.72735352 755.44244629 -369.03673828 755.54895508 -368.32519531 755.65869141 C-363.70232155 756.35434388 -359.06897021 756.87569765 -354.41796875 757.3359375 C-353.12415283 757.47128906 -353.12415283 757.47128906 -351.80419922 757.609375 C-310.03098593 761.83307137 -266.4280506 760.80443376 -225.29003906 751.94287109 C-221.95206854 751.23748222 -218.60378431 750.59564805 -215.25390625 749.94921875 C-186.22403168 744.16967907 -158.19942613 734.97188374 -131.41796875 722.3359375 C-130.2990625 721.81805664 -129.18015625 721.30017578 -128.02734375 720.76660156 C-85.16552913 700.90126378 -46.31077919 675.18513831 -11.41796875 643.3359375 C-10.50789062 642.51867188 -9.5978125 641.70140625 -8.66015625 640.859375 C2.30042049 630.95101363 13.10952686 620.69437037 22.58203125 609.3359375 C23.41992188 608.36398437 24.2578125 607.39203125 25.12109375 606.390625 C31.25578783 599.26224554 37.07202981 591.96247917 42.58203125 584.3359375 C43.04222656 583.70171875 43.50242187 583.0675 43.9765625 582.4140625 C84.70034383 526.10994266 112.76161178 460.81697824 121.17626953 391.61279297 C121.57525534 388.39065846 122.02866014 385.17937491 122.484375 381.96484375 C127.34268889 344.77398851 126.86048683 305.32339918 120.58203125 268.3359375 C120.3652699 267.01746301 120.14880255 265.69894015 119.93261719 264.38037109 C112.85577864 221.79975141 98.94457437 179.45424714 78.58203125 141.3359375 C77.98769287 140.21324463 77.98769287 140.21324463 77.38134766 139.06787109 C67.54241719 120.55746815 56.89464791 102.66233936 43.97558594 86.12646484 C42.63323593 84.40172852 41.31136609 82.66340894 39.99609375 80.91796875 C34.12755633 73.1517998 27.93870139 65.70456594 21.58203125 58.3359375 C20.94394531 57.59601563 20.30585937 56.85609375 19.6484375 56.09375 C17.97082966 54.16430726 16.27800397 52.24924311 14.58203125 50.3359375 C13.96714844 49.62824219 13.35226562 48.92054688 12.71875 48.19140625 C3.04517152 37.20615611 -7.21034236 26.50492394 -18.73828125 17.45703125 C-21.18193094 15.52277209 -23.53931185 13.51306122 -25.88842773 11.46582031 C-48.18728014 -7.86144756 -74.00440554 -24.29311454 -99.91357422 -38.3046875 C-102.16848027 -39.52864118 -104.40636327 -40.77796732 -106.640625 -42.0390625 C-138.96564179 -60.05251239 -175.40696015 -71.71640062 -211.41796875 -79.6640625 C-212.71323486 -79.95651855 -212.71323486 -79.95651855 -214.03466797 -80.25488281 C-239.12382321 -85.82356154 -265.71415638 -89.4244206 -291.41796875 -89.6640625 C-292.56265625 -89.68307617 -293.70734375 -89.70208984 -294.88671875 -89.72167969 C-334.37367218 -90.33866333 -372.91740617 -86.72193028 -411.41796875 -77.6640625 Z " fill="#010101" transform="translate(820.41796875,412.6640625)"></path>
  <path d="M0 0 C2.41317632 0.01605864 4.82466732 0.00005829 7.23779297 -0.01904297 C21.67241719 -0.03947356 35.8529729 1.77951781 49.67138672 6.07861328 C50.9142041 6.46206909 50.9142041 6.46206909 52.18212891 6.85327148 C75.62835242 14.40241543 94.96521742 29.8048982 112.29638672 46.89111328 C113.04903809 47.62962524 113.04903809 47.62962524 113.81689453 48.38305664 C116.28309743 50.8720311 118.22205615 53.12648443 119.54638672 56.39111328 C118.72138672 57.03435547 117.89638672 57.67759766 117.04638672 58.34033203 C110.47140114 63.48014399 103.94646703 68.67303068 97.48388672 73.95361328 C78.66244762 89.30620812 78.66244762 89.30620812 71.54638672 93.39111328 C70.98951172 92.67826172 70.43263672 91.96541016 69.85888672 91.23095703 C56.29127139 74.20268306 39.57176276 64.13222906 18.23388672 59.70361328 C-4.9710621 57.7370922 -28.42307265 63.02982383 -46.75830078 78.00048828 C-62.23134169 91.32185402 -71.04790819 109.45326616 -74.20361328 129.45361328 C-74.28611328 130.75298828 -74.36861328 132.05236328 -74.45361328 133.39111328 C-74.52837891 134.28572266 -74.60314453 135.18033203 -74.68017578 136.10205078 C-75.79350546 160.30232216 -67.75268503 185.50800688 -51.66455078 203.58642578 C-38.15825247 218.12125983 -20.28285918 226.53995799 -0.43798828 227.64501953 C20.63321115 228.4114149 41.99847722 222.89391956 58.54638672 209.39111328 C63.19143629 205.01180432 67.39740869 200.23618231 71.54638672 195.39111328 C76.8514681 199.18045713 81.77602806 203.28365836 86.67138672 207.57861328 C93.26704001 213.35590628 100.04397117 218.83796456 106.98779297 224.18945312 C109.30603595 225.97679522 111.61289197 227.77870878 113.92138672 229.57861328 C115.12942654 230.51649147 116.33762627 231.45416404 117.54638672 232.39111328 C97.50267063 262.17034861 61.25151578 277.72647504 27.45874023 284.85986328 C-6.7141547 291.09343017 -45.57609634 284.43103094 -74.89111328 265.45361328 C-76.763963 264.12540573 -78.61901814 262.77167912 -80.45361328 261.39111328 C-81.78199219 260.3953125 -81.78199219 260.3953125 -83.13720703 259.37939453 C-110.5995768 237.8160534 -128.66371754 208.62588174 -135.45361328 174.39111328 C-135.79585938 172.67408203 -135.79585938 172.67408203 -136.14501953 170.92236328 C-142.33702098 133.16414467 -135.99503173 91.41583071 -113.70361328 59.82861328 C-106.46134172 50.29105487 -98.86653275 40.86168429 -89.45361328 33.39111328 C-88.72142578 32.77236328 -87.98923828 32.15361328 -87.23486328 31.51611328 C-62.33730767 10.82204109 -32.35302978 -0.25474827 0 0 Z " fill="#000000" transform="translate(513.45361328125,596.60888671875)"></path>
</svg><style>@media (prefers-color-scheme: light) { :root { filter: none; } }
@media (prefers-color-scheme: dark) { :root { filter: none; } }
</style></svg>